<svg version="1.1" id="svg2" xml:space="preserve" viewBox="222.62261288288286 352 86.4864827027027 94.39999999999999" xmlns="http://www.w3.org/2000/svg" style="max-height: 500px" width="86.4864827027027" height="94.39999999999999"><metadata id="metadata8">image/svg+xml</metadata><defs id="defs6"><clipPath clipPathUnits="userSpaceOnUse" id="clipPath20"><path d="M 0,600 H 400 V 0 H 0 Z" id="path18"/></clipPath></defs><g id="g10" transform="matrix(1.3333333,0,0,-1.3333333,0,800)"><path d="M 0,0 H 400 V 600 H 0 Z" style="fill:#ffffff;fill-opacity:0;fill-rule:nonzero;stroke:none" id="path12"/><g id="g14"><g id="g16" clip-path="url(#clipPath20)"><g id="g22" transform="translate(227.4463,303.959)"><path d="m 0,0 c -6.966,-8.744 -20.07,-23.722 -33.077,-30.687 -17.622,-9.439 -15.738,7.904 -12.873,17.426 3.365,11.182 11.727,22.662 21.326,31.618 9.454,8.82 16.75,8.397 18.414,6.098 0.313,-0.432 0.591,-0.899 0.785,-1.436 0.89,-3.474 -0.175,-7.436 -3.217,-10.996 -5.901,-6.902 -9.008,-6.639 -13.295,-8.327 -2.483,-0.979 -3.381,-3.869 -1.661,-6.034 1.21,-1.522 4.296,-1.046 5.754,0.27 12.579,11.354 15.316,20.522 13.515,25.485 -1.031,2.846 -3.507,4.477 -6.793,4.477 -16.789,0 -31.664,-17.797 -37.185,-27.209 -7.669,-13.078 -10.092,-25.293 -6.322,-31.877 1.731,-3.023 4.672,-4.621 8.502,-4.621 17.266,0 38.436,24.188 47.612,35.813 z" style="fill:#000000;fill-opacity:1;fill-rule:nonzero;stroke:none" id="path24"/></g></g></g></g></svg>